PathFileType	4	(X/Y/Z)	D:\TRACE\v60_Jaco2_6-2-23\ArmBodyNoDRS_DMP_1-platform.trc
DataRate	CameraRate	NumFrames	NumMarkers	Units	OrigDataRate	OrigDataStartFrame	OrigNumFrames
100.00	100.00	      92	5	mm	100.00	665	      5315
Frame#	Time	Left_Front			Right_Front			Left_Aft			Right_Aft			Post			
		X1	Y1	Z1	X2	Y2	Z2	X3	Y3	Z3	X4	Y4	Z4	X5	Y5	Z5	

665	6.640				780.38831	9.74625	-632.70013	-719.59668	6.95664	480.87915	698.10663	8.98230	583.44434	3.12809	1307.64966	-966.02045	
666	6.650				780.30981	9.73794	-632.75861	-719.45648	6.77458	480.85892	698.08893	8.91574	583.49878	3.04395	1307.66687	-966.00726	
667	6.660				780.27771	9.67535	-632.70392	-719.46490	6.73832	480.89108	698.06592	8.88201	583.48096	3.17456	1307.59204	-965.86096	
668	6.670				780.28076	9.61071	-632.66876	-719.45477	6.73368	480.88397	698.04120	8.88665	583.48352	3.20839	1307.52991	-965.85986	
669	6.680				780.24994	9.64448	-632.66541	-719.63135	6.92972	480.89355	698.00775	8.94403	583.47119	3.23303	1307.47668	-965.81653	
670	6.690				780.26776	9.67459	-632.71606	-719.42847	6.78584	480.87515	698.07025	8.94931	583.41669	3.24138	1307.53687	-965.78040	
671	6.700				780.27826	9.69127	-632.73767	-719.59888	6.95125	480.87866	698.05756	8.96151	583.45441	3.23209	1307.52124	-965.81207	
672	6.710				780.22424	9.66760	-632.76428	-719.44281	6.74501	480.86420	698.07794	8.89521	583.45258	3.16194	1307.52856	-965.81433	
673	6.720				780.26752	9.78557	-632.74231	-719.60205	6.91878	480.93765	698.06873	8.88912	583.46765	3.28741	1307.50806	-965.80792	
674	6.730				780.22528	9.97953	-632.77368	-719.50214	6.74296	480.92694	698.07843	8.87458	583.48352	3.17814	1307.53894	-965.91278	
675	6.740				780.24811	9.85497	-632.73907	-719.43420	6.79686	480.92578	698.14252	8.82923	583.45984	2.98877	1307.71082	-966.01971	
676	6.750				780.30792	9.68165	-632.74103	-719.41174	6.81797	480.87006	698.17651	8.80969	583.43445	2.99023	1307.69824	-966.01013	
677	6.760				780.34290	9.63150	-632.69861	-719.44427	6.75969	480.87262	698.11902	8.82102	583.46948	3.14341	1307.61194	-965.88391	
678	6.770				780.30127	9.64649	-632.73242	-719.60675	6.92538	480.92276	698.08948	8.88881	583.46240	3.36375	1307.42712	-965.80518	
679	6.780				780.34222	9.65815	-632.67084	-719.46808	6.74610	480.93924	698.06213	8.90484	583.44379	3.35147	1307.43542	-965.77026	
680	6.790				780.30566	9.71476	-632.71906	-719.40411	6.76376	480.94055	698.08954	8.87736	583.47748	3.20556	1307.49048	-965.80078	
681	6.800				780.38031	9.82832	-632.73682	-719.39178	6.79562	480.88669	698.18713	8.88831	583.41895	3.06695	1307.61316	-965.96472	
682	6.810				780.31042	9.79664	-632.74506	-719.42194	6.77728	480.86856	698.13177	8.87707	583.44659	3.05646	1307.63318	-965.99261	
683	6.820				780.30566	9.68069	-632.68713	-719.45935	6.77079	480.89639	698.09979	8.89512	583.47803	3.17745	1307.57983	-965.91388	
684	6.830				780.22400	9.67974	-632.73700	-719.47607	6.72826	480.93964	697.44623	8.25957	583.51392	3.35000	1307.47900	-965.89276	
685	6.840				780.26605	9.74971	-632.76654	-719.44073	6.74972	480.98346	697.82178	8.49506	583.41309	3.32522	1307.56873	-965.93146	
686	6.850				780.35254	9.87992	-632.71448	-719.54468	6.92456	480.91443	697.98151	8.68598	583.34692	3.07424	1307.63855	-965.95660	
687	6.860				780.30511	9.82521	-632.73792	-719.40930	6.75251	480.88177	697.99072	8.74681	583.30786	2.96989	1307.72449	-965.94733	
688	6.870				780.25836	9.78217	-632.75092	-719.61230	6.93998	480.85611	697.86908	8.79369	583.31482	3.09581	1307.55652	-965.90118	
689	6.880				780.31458	9.68048	-632.72272	-719.67218	6.99955	480.87534	697.89838	8.75281	583.35199	3.22869	1307.43530	-965.72040	
690	6.890				780.22137	9.67250	-632.75256	-719.47491	6.78952	480.98157	697.89758	8.71783	583.38879	3.40794	1307.37097	-965.69507	
691	6.900				780.23328	9.81275	-632.79413	-719.57837	6.94167	480.96954	698.03522	8.72975	583.28229	3.34149	1307.48254	-965.73132	
692	6.910				780.22107	9.81936	-632.78973	-719.56140	6.99148	480.90683	698.07190	8.83169	583.22449	3.07043	1307.61829	-965.87854	
693	6.920				780.24231	9.80890	-632.80194	-719.43701	6.80714	480.88919	697.95099	8.75233	583.30920	2.97938	1307.70007	-966.01599	
694	6.930				780.27722	9.77528	-632.72919	-719.65155	6.89200	480.91455	697.88855	8.73005	583.35303	3.04259	1307.62415	-965.92682	
695	6.940				780.28821	9.77953	-632.71899	-719.63654	6.90799	480.97519	697.94763	8.66765	583.37073	3.17189	1307.55066	-965.84198	
696	6.950				780.29285	9.77292	-632.74854	-719.60089	6.92565	480.97183	697.94244	8.66843	583.39209	3.20253	1307.54883	-965.85620	
697	6.960				780.23962	9.75598	-632.81396	-719.55682	6.96141	480.92001	697.95331	8.74659	583.34766	3.17864	1307.55798	-965.90405	
698	6.970				780.22778	9.77273	-632.79254	-719.58429	7.01645	480.87280	697.88318	8.79534	583.28748	3.17839	1307.59143	-965.89917	
699	6.980				780.25555	9.78191	-632.79578	-719.59540	6.95595	480.90634	697.77618	8.58130	583.42719	3.08090	1307.57312	-965.90552	
700	6.990				780.23413	9.72455	-632.74713	-719.66351	6.92859	480.86050	697.37646	8.13420	583.72955	3.10861	1307.54919	-965.86322	
701	7.000				780.34204	9.68040	-632.62561	-719.47821	6.69698	480.95255	698.14349	8.83887	583.47638	3.25128	1307.51001	-965.84094	
702	7.010				780.29620	9.77297	-632.70538	-719.57318	6.89744	480.97479	698.08777	8.86186	583.49200	3.19132	1307.58447	-965.88464	
703	7.020				780.32697	9.83649	-632.69055	-719.39789	6.77469	480.95187	698.17371	8.87322	583.46204	3.13221	1307.71667	-965.94763	
704	7.030				780.31921	9.87496	-632.68689	-719.57465	6.96394	480.89810	698.13318	8.88949	583.45697	3.05843	1307.70605	-965.92798	
705	7.040				780.29626	9.79352	-632.77448	-719.46698	6.75850	480.91516	698.15576	8.80788	583.49536	3.10495	1307.63416	-965.87598	
706	7.050				780.20648	9.70383	-632.76495	-719.66162	6.91413	480.89774	698.10040	8.84421	583.47314	3.21954	1307.52869	-965.80530	
707	7.060				780.25348	9.70352	-632.73682	-719.60767	6.92504	480.95825	698.10291	8.85782	583.46259	3.20727	1307.51123	-965.80634	
708	7.070				780.23853	9.76957	-632.82605	-719.60107	7.00850	480.92200	698.07782	8.92209	583.43939	3.17123	1307.49646	-965.78290	
709	7.080				780.23303	9.80079	-632.77509	-719.43317	6.83613	480.87247	698.14734	8.89595	583.45203	3.24218	1307.53174	-965.72986	
710	7.090				780.28271	9.81258	-632.78601	-719.58832	6.93921	480.90591	698.12329	8.86846	583.47028	3.20996	1307.54272	-965.82526	
711	7.100				780.18481	9.71544	-632.79761	-719.43036	6.68085	480.92169	698.10651	8.86088	583.49280	3.04831	1307.59106	-965.84570	
712	7.110				780.20294	9.78664	-632.73157	-719.63159	6.86697	480.96585	698.07654	8.86796	583.49902	3.13416	1307.60156	-965.88580	
713	7.120				780.22540	9.94318	-632.78064	-719.61475	6.94042	480.96115	698.09961	8.82687	583.48456	3.15641	1307.64893	-965.95288	
714	7.130				780.30139	9.83763	-632.74078	-719.57092	6.98676	480.89413	698.15814	8.86321	583.48663	3.09825	1307.75537	-965.95135	
715	7.140				780.51758	9.39346	-632.82526	-719.54724	6.93508	480.86292	698.14124	8.93696	583.46289	2.98742	1307.70911	-965.88403	
716	7.150				780.35480	9.51573	-632.68396	-719.44696	6.72605	480.89648	698.08167	8.89001	583.44171	3.16774	1307.47266	-965.76245	
717	7.160				780.28314	9.67295	-632.70898	-719.62164	6.92427	480.91901	698.02710	8.92503	583.44989	3.24350	1307.38440	-965.75037	
718	7.170				780.35907	9.56234	-632.72308	-719.48108	6.78515	480.92386	698.04388	8.92580	583.43915	3.25596	1307.38721	-965.78143	
719	7.180				780.27344	9.55684	-632.71149	-719.62469	6.96476	480.85974	698.06311	8.92620	583.45148	3.09247	1307.56311	-965.87994	
720	7.190				780.34082	9.70899	-632.70056	-719.42041	6.82538	480.83868	698.18115	8.90668	583.41949	3.06568	1307.65198	-966.10309	
721	7.200				780.23859	9.82186	-632.77820	-719.62317	6.99578	480.86047	698.05841	8.94838	583.47607	3.10119	1307.62183	-966.14325	
722	7.210				780.30463	9.65751	-632.66614	-719.64856	6.83904	480.91977	698.04211	8.91030	583.49487	3.10124	1307.54578	-966.11829	
723	7.220				780.25092	9.59954	-632.65778	-719.68488	6.86717	481.10455	698.11652	8.84714	583.52588	3.18407	1307.55920	-966.00763	
724	7.230				780.31744	9.71486	-632.65375	-719.77716	7.01912	481.00513	698.15894	8.80943	583.50427	3.07899	1307.63770	-966.01776	
725	7.240				780.33234	9.79019	-632.69373	-719.11517	6.30359	481.10587	698.13208	8.96758	583.44666	3.09464	1307.63525	-966.00201	
726	7.250				780.28345	9.80420	-632.79309	-719.17889	6.38365	481.01273	698.13934	9.02971	583.40100	3.15977	1307.62854	-965.85126	
727	7.260				780.25824	9.59481	-632.74365	-719.23798	6.33138	481.02301	697.97833	8.96765	583.46844	3.15066	1307.43689	-965.81848	
728	7.270				780.18750	9.50425	-632.71643	-719.21924	6.26208	481.18573	698.01282	8.95889	583.46161	3.17966	1307.40002	-965.68829	
729	7.280				780.32556	9.60789	-632.64124	-719.17572	6.23669	481.27432	698.05200	8.90124	583.49152	3.31244	1307.38977	-965.60077	
730	7.290				780.24432	9.68807	-632.77966	-719.16248	6.30723	481.13159	698.07935	8.89814	583.47894	3.26773	1307.51440	-965.71234	
731	7.300				780.27075	9.69050	-632.75616	-719.13684	6.32220	481.05096	698.10986	8.93517	583.45581	3.05929	1307.69897	-965.87378	
732	7.310				780.38165	9.77054	-632.69794	-719.20544	6.29667	481.05988	698.09369	8.91536	583.48590	3.08482	1307.71521	-965.89325	
733	7.320				780.30176	9.68670	-632.70416	-719.20398	6.16470	481.19144	698.10797	8.85826	583.48877	3.06236	1307.57849	-965.90991	
734	7.330				780.25128	9.60747	-632.62787	-719.15656	6.10329	481.31027	698.09979	8.86355	583.50641	3.15379	1307.50574	-965.80841	
735	7.340				780.24884	9.57039	-632.71039	-719.14038	6.26818	481.20563	698.07709	8.88176	583.47931	3.21402	1307.52661	-965.82990	
736	7.350				780.25867	9.71357	-632.77405	-719.17664	6.38342	481.06528	698.08118	9.01487	583.42596	3.21710	1307.51685	-965.85883	
737	7.360				780.31903	9.71879	-632.73859	-719.20496	6.40756	480.97592	698.05902	9.03246	583.41809	3.17195	1307.55542	-965.89008	
738	7.370				780.30847	9.61065	-632.72278	-719.51105	6.80284	480.83044	698.06238	8.92921	583.45160	3.14576	1307.50281	-965.93402	
739	7.380				780.39618	9.52540	-632.60730	-719.47388	6.69238	480.92157	698.09143	8.89591	583.51276	3.15774	1307.48499	-965.92017	
740	7.390				780.36554	9.60104	-632.56213	-719.43469	6.68775	480.99332	698.09015	8.87830	583.51947	3.17986	1307.52222	-965.91840	
741	7.400				780.32794	9.70978	-632.69714	-719.42511	6.71371	480.96204	698.07739	8.91064	583.47583	3.13561	1307.63257	-965.98230	
742	7.410				780.28131	9.74190	-632.69067	-719.57806	6.84065	481.12033	698.21875	9.28252	582.84192	3.19087	1307.71631	-966.02386	
743	7.420				780.32739	9.71379	-632.70233	-719.68127	6.97494	480.97537	698.10095	9.17010	582.83337	3.09368	1307.72925	-965.91101	
744	7.430				780.24780	9.67494	-632.69897	-719.64423	6.92323	480.89749	698.07056	9.10574	582.89771	3.02705	1307.58105	-965.82184	
745	7.440				780.38397	9.57126	-632.60114	-719.46698	6.73060	480.94034	698.20636	9.18441	583.02399	3.18866	1307.49902	-965.76489	
746	7.450				780.25842	9.58650	-632.74384	-719.45746	6.76242	480.94995	698.14941	9.20294	583.02521	3.21926	1307.45874	-965.68756	
747	7.460				780.32410	9.67890	-632.72821	-719.58606	6.97704	480.89804	698.11633	9.25035	583.04108	3.16271	1307.47461	-965.70782	
748	7.470				780.33002	9.70368	-632.72363	-719.41937	6.81494	480.86597	698.19098	9.21932	583.02625	3.27238	1307.57019	-965.71521	
749	7.480				780.29047	9.67207	-632.66254	-719.45251	6.77634	480.88492	698.16364	9.18782	583.13629	3.24518	1307.52380	-965.77686	
750	7.490				780.21844	9.70709	-632.75159	-719.48846	6.73165	480.93655	698.21643	9.17531	583.18268	3.11407	1307.51990	-965.84900	
751	7.500				780.26514	9.90526	-632.71179	-719.46851	6.74292	480.94116	698.19202	9.16264	583.15802	3.11858	1307.59436	-965.99976	
752	7.510				780.24420	9.89569	-632.77875	-719.59924	6.94603	480.93634	698.20435	9.13325	583.07642	3.05659	1307.65344	-966.08264	
753	7.520				780.30194	9.62079	-632.73413	-719.41437	6.76457	480.92401	698.21381	9.08703	582.95953	3.09160	1307.67578	-966.13312	
754	7.530				780.34186	9.66729	-632.72888	-719.59137	6.93041	480.91580	698.21722	8.76647	583.49628	3.29784	1307.63562	-966.08087	
755	7.540				780.31848	9.75631	-632.75330	-719.44098	6.71060	480.96121	698.15790	8.83285	583.52240	3.34890	1307.48560	-965.90222	
756	7.550				780.36053	9.61768	-632.66211	-719.48657	6.73449	480.98080	698.07269	8.91537	583.47351	3.32054	1307.45142	-965.77411	
